<svg id="visual" viewBox="0 0 900 600" width="900" height="600" xmlns="http://www.w3.org/2000/svg" xmlns:xlink="http://www.w3.org/1999/xlink" version="1.1"><rect x="0" y="0" width="900" height="600" fill="#445069"></rect><defs><linearGradient id="grad1_0" x1="33.3%" y1="0%" x2="100%" y2="100%"><stop offset="20%" stop-color="#5b9a8b" stop-opacity="1"></stop><stop offset="80%" stop-color="#5b9a8b" stop-opacity="1"></stop></linearGradient></defs><defs><linearGradient id="grad1_1" x1="33.3%" y1="0%" x2="100%" y2="100%"><stop offset="20%" stop-color="#5b9a8b" stop-opacity="1"></stop><stop offset="80%" stop-color="#445069" stop-opacity="1"></stop></linearGradient></defs><defs><linearGradient id="grad2_0" x1="0%" y1="0%" x2="66.7%" y2="100%"><stop offset="20%" stop-color="#5b9a8b" stop-opacity="1"></stop><stop offset="80%" stop-color="#5b9a8b" stop-opacity="1"></stop></linearGradient></defs><defs><linearGradient id="grad2_1" x1="0%" y1="0%" x2="66.7%" y2="100%"><stop offset="20%" stop-color="#445069" stop-opacity="1"></stop><stop offset="80%" stop-color="#5b9a8b" stop-opacity="1"></stop></linearGradient></defs><g transform="translate(900, 0)"><path d="M0 486.7C-71.8 488.5 -143.6 490.2 -186.3 449.7C-229 409.2 -242.6 326.5 -275.8 275.8C-308.9 225.1 -361.6 206.3 -400 165.7C-438.5 125.1 -462.6 62.5 -486.7 0L0 0Z" fill="#3d7686"></path><path d="M0 243.4C-35.9 244.2 -71.8 245.1 -93.1 224.8C-114.5 204.6 -121.3 163.2 -137.9 137.9C-154.5 112.5 -180.8 103.2 -200 82.9C-219.2 62.5 -231.3 31.3 -243.4 0L0 0Z" fill="#5b9a8b"></path></g><g transform="translate(0, 600)"><path d="M0 -486.7C66.2 -483.7 132.4 -480.7 186.3 -449.7C240.1 -418.7 281.5 -359.6 304.8 -304.8C328 -249.9 333 -199.3 360.3 -149.2C387.6 -99.2 437.2 -49.6 486.7 0L0 0Z" fill="#3d7686"></path><path d="M0 -243.4C33.1 -241.9 66.2 -240.4 93.1 -224.8C120 -209.3 140.8 -179.8 152.4 -152.4C164 -125 166.5 -99.7 180.2 -74.6C193.8 -49.6 218.6 -24.8 243.4 0L0 0Z" fill="#5b9a8b"></path></g></svg>